Coordinates
version=1
nRows=23
nColumns=30
inDegrees=yes

Units are S.I. units (second, meters, Newtons, ...)
Angles are in degrees.

endheader
time	floatyaw	floatroll	floatpitch	floatx	floaty	floatz	pro_sup_l	deviation_l	flexion_l	cmc_flexion_l	cmc_abduction_l	mp_flexion_l	ip_flexion_l	2mcp_flexion_l	2mcp_abduction_l	2pm_flexion_l	2md_flexion_l	3mcp_flexion_l	3mcp_abduction_l	3pm_flexion_l	3md_flexion_l	4mcp_flexion_l	4mcp_abduction_l	4pm_flexion_l	4md_flexion_l	5mcp_flexion_l	5mcp_abduction_l	5pm_flexion_l	5md_flexion_l
-0.995000	-0.679314	-3.115271	87.889519	-0.009830	-0.228908	0.003676	87.026405	0.396604	-4.982785	26.187770	0.811148	-18.941704	-33.303563	16.519182	5.000365	33.436664	20.519424	4.047220	3.486264	37.821149	21.680753	-7.720216	-2.961825	56.616486	29.075919	-23.643274	-6.918450	65.294331	39.071761
-0.985000	-0.679314	-3.115271	87.889519	-0.009833	-0.228980	0.003745	87.014230	0.376326	-5.008965	26.217091	0.867739	-18.965700	-33.383402	16.545117	5.015919	33.444921	20.550923	4.031920	3.478727	37.881725	21.691613	-7.665494	-2.965189	56.565939	29.070933	-23.677082	-6.914102	65.331554	39.090107
-0.975000	-0.679314	-3.115271	87.889519	-0.009843	-0.229052	0.003817	86.997920	0.354349	-5.029863	26.243996	0.916561	-18.994740	-33.444378	16.560307	5.029815	33.458679	20.588438	4.020774	3.470575	37.922806	21.703237	-7.612871	-2.974490	56.495090	29.069207	-23.717756	-6.879856	65.384637	39.105518
-0.965000	-0.679314	-3.115271	87.889519	-0.009855	-0.229113	0.003881	86.989142	0.335801	-5.043533	26.276082	0.933393	-19.022898	-33.489123	16.559720	5.040564	33.475033	20.629551	4.007241	3.460462	37.949926	21.710254	-7.569645	-2.987221	56.417619	29.069278	-23.758227	-6.823331	65.448021	39.116480
-0.955000	-0.679314	-3.115271	87.889519	-0.009863	-0.229155	0.003926	86.995125	0.325688	-5.048205	26.316598	0.905627	-19.044502	-33.521484	16.539878	5.047343	33.496565	20.667451	3.981995	3.448514	37.978688	21.707709	-7.545886	-3.000589	56.359161	29.063577	-23.795457	-6.758255	65.523293	39.110464
-0.945000	-0.679314	-3.115271	87.889519	-0.009860	-0.229172	0.003944	87.015216	0.326328	-5.044783	26.362300	0.841897	-19.056818	-33.546275	16.506149	5.050298	33.525549	20.693426	3.944187	3.436136	38.021281	21.693008	-7.545381	-3.012548	56.341653	29.044236	-23.824794	-6.698972	65.611791	39.072832
-0.935000	-0.679314	-3.115271	87.889519	-0.009842	-0.229167	0.003934	87.041746	0.336047	-5.038160	26.405284	0.770716	-19.060938	-33.569474	16.474592	5.050786	33.559257	20.701558	3.907777	3.425311	38.075240	21.667421	-7.559815	-3.022581	56.369095	29.010501	-23.836381	-6.655275	65.707553	38.997890
-0.925000	-0.679314	-3.115271	87.889519	-0.009813	-0.229147	0.003905	87.064102	0.350191	-5.035075	26.436279	0.727306	-19.059927	-33.595458	16.464290	5.050924	33.590808	20.692522	3.895417	3.417879	38.124003	21.636242	-7.572575	-3.031698	56.425830	28.971260	-23.819173	-6.630425	65.796584	38.893772
-0.915000	-0.679314	-3.115271	87.889519	-0.009776	-0.229119	0.003866	87.073871	0.363968	-5.039609	26.447968	0.735688	-19.055835	-33.623064	16.484791	5.052638	33.614504	20.673833	3.922973	3.415291	38.149456	21.607612	-7.569732	-3.041554	56.488219	28.940679	-23.769690	-6.623157	65.863428	38.778021
-0.905000	-0.679314	-3.115271	87.889519	-0.009736	-0.229088	0.003819	87.068762	0.375236	-5.050008	26.438091	0.796541	-19.048366	-33.645127	16.528288	5.056957	33.630547	20.656320	3.986423	3.418825	38.146470	21.590390	-7.549501	-3.053234	56.540071	28.930552	-23.697559	-6.631568	65.900342	38.668080
-0.895000	-0.679314	-3.115271	87.889519	-0.009694	-0.229052	0.003764	87.053509	0.385333	-5.059669	26.411709	0.887977	-19.036531	-33.653425	16.572889	5.063939	33.645130	20.649138	4.062003	3.429818	38.127418	21.591364	-7.522667	-3.066511	56.580022	28.944917	-23.622543	-6.655476	65.912352	38.574475
-0.885000	-0.679314	-3.115271	87.889519	-0.009651	-0.229007	0.003696	87.037148	0.397450	-5.061747	26.380843	0.978448	-19.021702	-33.645556	16.594828	5.072917	33.666516	20.656184	4.120303	3.449409	38.113008	21.612378	-7.503994	-3.080065	56.616603	28.979699	-23.564933	-6.695372	65.914506	38.501215
-0.875000	-0.679314	-3.115271	87.889519	-0.009608	-0.228954	0.003614	87.028090	0.413819	-5.053778	26.360084	1.043435	-19.008993	-33.627693	16.580622	5.082716	33.701285	20.675307	4.143768	3.477743	38.117426	21.648416	-7.501843	-3.092478	56.657254	29.025408	-23.536386	-6.749166	65.923326	38.450356
-0.865000	-0.679314	-3.115271	87.889519	-0.009566	-0.228897	0.003527	87.029989	0.433729	-5.038758	26.359328	1.075561	-19.005139	-33.609897	16.530714	5.091903	33.754206	20.699860	4.134423	3.513116	38.140290	21.687932	-7.514193	-3.103194	56.701715	29.069114	-23.537398	-6.809804	65.948244	38.423657
-0.855000	-0.679314	-3.115271	87.889519	-0.009530	-0.228841	0.003447	87.040839	0.453707	-5.022080	26.377468	1.083018	-19.013929	-33.596637	16.453541	5.099347	33.830783	20.721355	4.106991	3.551757	38.171177	21.716148	-7.533152	-3.112709	56.744644	29.094788	-23.561792	-6.866063	65.987940	38.418385
-0.845000	-0.679314	-3.115271	87.889519	-0.009501	-0.228791	0.003387	87.055214	0.469616	-5.007108	26.401138	1.079782	-19.032350	-33.579441	16.357085	5.104909	33.937725	20.732038	4.074676	3.588601	38.201168	21.720726	-7.552633	-3.121927	56.783027	29.084895	-23.603024	-6.906389	66.032249	38.422453
-0.835000	-0.679314	-3.115271	87.889519	-0.009483	-0.228749	0.003355	87.067490	0.479156	-4.993070	26.409964	1.075922	-19.050367	-33.537919	16.246163	5.109602	34.077958	20.726730	4.039880	3.618801	38.230676	21.697500	-7.572095	-3.131282	56.820168	29.026217	-23.656675	-6.923629	66.067285	38.416893
-0.825000	-0.679314	-3.115271	87.889519	-0.009475	-0.228712	0.003347	87.074126	0.483054	-4.976682	26.386121	1.073585	-19.054975	-33.449925	16.126871	5.114707	34.242699	20.703953	3.996249	3.639252	38.267564	21.653268	-7.594228	-3.140283	56.862562	28.918422	-23.718436	-6.918106	66.081600	38.387161
-0.815000	-0.679314	-3.115271	87.889519	-0.009473	-0.228682	0.003352	87.074790	0.484199	-4.955588	26.323416	1.068029	-19.036381	-33.305198	16.011947	5.120148	34.407533	20.666778	3.938144	3.649329	38.318351	21.603682	-7.620295	-3.147583	56.912945	28.779531	-23.781773	-6.897596	66.072596	38.335023
-0.805000	-0.679314	-3.115271	87.889519	-0.009477	-0.228661	0.003360	87.072828	0.485280	-4.930594	26.231001	1.050641	-18.992994	-33.114087	15.920415	5.123435	34.537404	20.623233	3.868781	3.650477	38.379982	21.566739	-7.647634	-3.151281	56.965288	28.642644	-23.838997	-6.874472	66.051652	38.279984
-0.795000	-0.679314	-3.115271	87.889519	-0.009485	-0.228652	0.003369	87.074631	0.486310	-4.905305	26.129503	1.013362	-18.932906	-32.906087	15.871261	5.120632	34.598638	20.585356	3.801588	3.645022	38.437514	21.554828	-7.670367	-3.149307	57.004780	28.543887	-23.884751	-6.861580	66.044004	38.247010
-0.785000	-0.679314	-3.115271	87.889519	-0.009495	-0.228652	0.003387	87.086838	0.483457	-4.883899	26.041504	0.954977	-18.871395	-32.718946	15.875996	5.109465	34.571457	20.566102	3.755173	3.635009	38.468305	21.569180	-7.681902	-3.140123	57.012275	28.507710	-23.918283	-6.868376	66.079455	38.248575
-0.775000	-0.679314	-3.115271	87.889519	-0.009505	-0.228652	0.003433	87.111944	0.470259	-4.868420	25.981299	0.885984	-18.825321	-32.583544	15.933946	5.092507	34.457567	20.574654	3.745086	3.621782	38.450481	21.599414	-7.678193	-3.123926	56.971453	28.537207	-23.942806	-6.897983	66.175359	38.273470
